<svg id="euKDgfxrZcq1" width="250" height="250" xmlns="http://www.w3.org/2000/svg" xmlns:xlink="http://www.w3.org/1999/xlink" viewBox="0 0 92 92" shape-rendering="geometricPrecision" text-rendering="geometricPrecision"><style><![CDATA[#euKDgfxrZcq2_to {animation: euKDgfxrZcq2_to__to 8000ms linear infinite normal forwards}@keyframes euKDgfxrZcq2_to__to { 0% {transform: translate(21.048689px,21.050454px);animation-timing-function: cubic-bezier(0.285,0,0.7,1)} 50% {transform: translate(21.048689px,33.050454px);animation-timing-function: cubic-bezier(0.285,0,0.7,1)} 100% {transform: translate(21.048689px,21.050454px)}} #euKDgfxrZcq2_tr {animation: euKDgfxrZcq2_tr__tr 8000ms linear infinite normal forwards}@keyframes euKDgfxrZcq2_tr__tr { 0% {transform: rotate(-6deg);animation-timing-function: cubic-bezier(0.285,0,0.7,1)} 50% {transform: rotate(-50deg);animation-timing-function: cubic-bezier(0.285,0,0.7,1)} 100% {transform: rotate(0deg)}}]]></style><g id="euKDgfxrZcq2_to" transform="translate(21.048689,21.050454)"><g id="euKDgfxrZcq2_tr" transform="rotate(-6)"><path id="euKDgfxrZcq2" d="M40.5799,31.7094L33.1314,6.41001C31.9755,2.48368,27.861,0.21875,23.9416,1.35115C22.7487,1.69579,21.6638,2.33607,20.787,3.21282L2.93608,21.0638C0.055267,23.9446,0.069332,28.6294,2.96749,31.5275C3.84952,32.4096,4.93832,33.0564,6.13327,33.4082L31.4327,40.8566C35.359,42.0126,39.4599,39.7723,40.5923,35.8528C40.9828,34.5011,40.9785,33.0635,40.5799,31.7094Z" transform="translate(-20.833342,-21.110113)" clip-rule="evenodd" fill="rgb(202,237,247)" fill-rule="evenodd" stroke="none" stroke-width="1"/></g></g><g id="euKDgfxrZcq3" transform="matrix(1 0 0 1 16 16)"><g id="euKDgfxrZcq4"><rect id="euKDgfxrZcq5" width="60" height="60" rx="0" ry="0" fill="none" fill-rule="evenodd" stroke="none" stroke-width="1"/><path id="euKDgfxrZcq6" d="M18,56L54,56C55.10457,56,56,55.10457,56,54L56,40C56,38.895431,55.10457,38,54,38L18,38C16.895431,38,16,38.895431,16,40L16,54C16,55.10457,16.895431,56,18,56Z" fill="none" fill-rule="evenodd" stroke="rgb(37,40,45)" stroke-width="2" stroke-linejoin="round"/><path id="euKDgfxrZcq7" d="M36.000147,32.015907L36.000147,23C36.000147,20.790861,34.209286,19,32.000147,19L8.000147,19C5.791008,19,4.000147,20.790861,4.000147,23L4.000147,38C4.000147,40.209139,5.791008,42,8.000147,42L9.991399,42L9.991399,42" fill="none" fill-rule="evenodd" stroke="rgb(37,40,45)" stroke-width="2" stroke-linecap="round" stroke-linejoin="round"/><line id="euKDgfxrZcq8" x1="20" y1="32" x2="20" y2="27" fill="none" fill-rule="evenodd" stroke="rgb(37,40,45)" stroke-width="2" stroke-linecap="round" stroke-linejoin="round"/><path id="euKDgfxrZcq9" d="M11.322457,19L11.322457,13C11.322457,8.029,15.354457,4,20.322457,4C25.293457,4,29.322457,8.029,29.322457,13L29.322457,19" fill="none" fill-rule="evenodd" stroke="rgb(37,40,45)" stroke-width="2" stroke-linecap="round" stroke-linejoin="round"/><path id="euKDgfxrZcq10" d="M22.000147,28C22.000147,29.104,21.104147,30,20.000147,30C18.896147,30,18.000147,29.104,18.000147,28C18.000147,26.896,18.896147,26,20.000147,26C21.104147,26,22.000147,26.896,22.000147,28Z" fill="rgb(37,40,45)" stroke="none" stroke-width="1"/><circle id="euKDgfxrZcq11" r="2" transform="matrix(1 0 0 1 26 47)" fill="rgb(37,40,45)" stroke="none" stroke-width="1"/><circle id="euKDgfxrZcq12" r="2" transform="matrix(1 0 0 1 34 47)" fill="rgb(37,40,45)" stroke="none" stroke-width="1"/><circle id="euKDgfxrZcq13" r="2" transform="matrix(1 0 0 1 42 47)" fill="rgb(37,40,45)" stroke="none" stroke-width="1"/><line id="euKDgfxrZcq14" x1="47.995745" y1="43" x2="47.995745" y2="51" fill="none" fill-rule="evenodd" stroke="rgb(37,40,45)" stroke-width="2" stroke-linecap="round" stroke-linejoin="round"/></g></g></svg>